<?xml version="1.0" encoding="utf-8"?>
<!-- Generator: Adobe Illustrator 26.5.0, SVG Export Plug-In . SVG Version: 6.00 Build 0)  -->
<svg version="1.1" id="Capa_3" xmlns="http://www.w3.org/2000/svg" xmlns:xlink="http://www.w3.org/1999/xlink" x="0px" y="0px"
	 viewBox="0 0 1445.3 1389.9" style="enable-background:new 0 0 1445.3 1389.9;" xml:space="preserve">
<style type="text/css">
	.Estilo_x0020_gráfico{fill:#663333;stroke:#000000;stroke-miterlimit:10;}
	.st0{fill:#CC9966;stroke:#000000;stroke-miterlimit:10;}
	.st1{fill:#FF0033;stroke:#000000;stroke-miterlimit:10;}
	.st2{fill:#AD1D2B;}
	.st3{opacity:0.52;fill:#FF6600;}
	.st4{opacity:0.3;fill:#FFFFFF;}
	.st5{fill:#FFFFFF;}
	.st6{fill:none;stroke:#000000;stroke-width:20;stroke-miterlimit:10;}
	.st7{fill:#E6213C;stroke:#000000;stroke-width:20;stroke-miterlimit:10;}
	.st8{fill:#F299C1;stroke:#000000;stroke-width:17;stroke-miterlimit:10;}
	.st9{fill:#E6007E;stroke:#000000;stroke-width:5;stroke-miterlimit:10;}
	.st10{fill:#E30613;stroke:#000000;stroke-width:20;stroke-miterlimit:10;}
	.st11{fill:none;stroke:#000000;stroke-width:40;stroke-miterlimit:10;}
</style>
<rect x="0" y="8.2" class="st0" width="1445.3" height="1381.7"/>
<ellipse class="Estilo_x0020_gráfico" cx="734.3" cy="1047.3" rx="465.3" ry="96.2"/>
<polygon id="color_carne" class="st1" points="400.7,604.6 534.1,563.5 577.8,567.3 646.6,481.4 758.8,425 882.8,437.2 997.1,509.6 
	1045.6,608.7 1056.5,695 1021.3,802.8 962.1,852 885.8,894.1 831.2,905.6 790,915.7 745.4,987.3 668.2,1049.8 586.5,1081.1 
	443.7,1071.8 356.9,1010.7 293.5,915.7 273.5,802.8 308.1,710.1 345.1,636.5 "/>
<g id="Capa_2">
</g>
<path class="st2" d="M641.7,945.4c0,0,70.1,40,150.3-58.7c10.2-12.5-37.6,86.1-37.6,86.1l-71.2,61.8l-56.3,22.7l19.8-65.7
	L641.7,945.4z"/>
<path class="st2" d="M793.4,828c0,0,134.8,40.3,255.7-128.9l-48.9,133.1l-78.9,50.3l-137.9,26.1L793.4,828z"/>
<path class="st3" d="M364.7,657.4c0,0,131.5-108,326.3-43.8l-83-41.5l-65-6.3L451,585.4l-60.5,40.7L364.7,657.4z"/>
<path class="st3" d="M1005.7,544.1c0,0-131.5-171.6-374.1-31.5l91.1-75.4l84.7-7.5l80.9,7.5l77.8,40.7L1005.7,544.1z"/>
<path class="st4" d="M837.3,510.2c12.6,3,78.2,21.4,78.4,78.7c0,3.2-0.8,6.3-2.4,9.1c-5.7,9.6-22.2,29.4-52.2,3.3
	c-2.1-1.8-3.6-4.1-4.7-6.6c-3.6-8.9-15.9-32.9-47-46.8c-11.3-5.1-14-20-5.1-28.6c5.5-5.3,14.3-9.4,28.7-9.5
	C834.4,509.7,835.9,509.8,837.3,510.2z"/>
<g id="Capa_1">
	<path class="st5" d="M979.5,487.1c13.6,9.1,104.7-99.2,104.7-99.2l-39.9-60.1l-6-30l19.3-46.6l49-29.1l34.4,8.1l25.7,38.3
		l-5.4,89.8l33.6,1.7l60.3,19.8l19.9,24.9v31.2l-23.6,49.2l-42.8,25l-35.2,1.3l-22.7-20.2l-15.7-32.4l-109.3,85.5L979.5,487.1z"/>
	<path class="st6" d="M968.2,497.7l115.9-109.9c0,0-95.5-93.1-11-149.4s109.6,43.8,83.8,137.7"/>
	<path class="st7" d="M327.1,956c72.7,104.1,219.4,151.6,285.6,105.3s27-168.8-45.7-272.9s-188.3-158.8-242.9-99.2
		C273.5,744.4,254.4,851.9,327.1,956z"/>
	<path class="st8" d="M387.7,903.8c59.3,71.8,89,151.9,140.7,142.8c55.7-9.9,68.3-132.9,17.4-205.8s-155.7-106-202.1-73.6
		S342.3,848.9,387.7,903.8z"/>
	<path class="st9" d="M449,891c11.2,16,15.1,58.3,39,61.4c35.4,4.6,35.8-36.6,30.9-60.9c-7.9-39.3-35.9-66.5-74.7-77.8
		c-10.2-3-44.6-2.4-49,10.4C388,845.2,438.9,876.6,449,891z"/>
	<g>
		<path d="M1121.7,359.9c4.7-3.5,10.4-4.6,16.2-5c5.5-0.4,11-0.7,16.5-1c11-0.5,22.1-0.5,33.2,0.1c27.9,1.8,59.6,6.7,79.9,27.9
			c28.4,30.7,10.6,76.9-9.6,107c-1.7,2.6-3.8,5.4-5.7,7.9c-1.2,0.8-2.4,1.8-3.5,2.4c-24.6,16-62.3,32.1-89.4,13
			c-5.4-4-10-9-13.1-14.9c-7.9-15.2-14.5-30.8-21.1-46.5c-2.5-6-5-12.5-7.2-18.6c-0.3-0.9-0.6-1.9-0.9-3c-0.8-2.6,0.8-5.3,3.4-6.1
			c2.5-0.7,5,0.6,5.9,2.9c2.3,5.6,6.8,14.4,9.4,20c6.5,13.3,13.2,26.7,20.1,39.7c1.4,2.6,2.8,5.2,4.4,7.6
			c10.5,14.1,28.4,14.5,44.4,10c13.3-3.8,26.4-10.3,38-17.9c0,0-1.6,1.5-1.6,1.5c21.2-29.4,44.9-80.8,5.3-105.3
			c-26.7-16.3-61.1-18.2-91.9-18.9c-5.4,0-10.8,0-16.2,0.1C1132.5,363,1127.2,362.6,1121.7,359.9L1121.7,359.9z"/>
	</g>
	<path class="st10" d="M1016.4,551.5l118.7-92.9C1016.4,551.5,1016.4,551.5,1016.4,551.5z"/>
	<g>
		<path class="st11" d="M997.1,509.6c-9.5-11.7-19.9-22.2-31-31.7c-10-8.5-20.6-16.1-31.6-22.8c-21.4-12.9-44.5-22.4-68.3-28.2
			c-12.6-3.1-25.3-5.1-38.2-6.2c-60.4-4.9-122.7,12.6-173.4,53.9c-30.7,25-53.8,56-68.8,90c-70.7-11.4-145.7,6.3-205.6,55.1
			C269,710.3,252.3,874,343,985.3s254.4,128,365.7,37.3c38.9-31.7,66.3-72.4,81.5-116.6c60,4.5,121.7-13,172-54
			C1066.3,767.1,1082,613.8,997.1,509.6z"/>
		<g>
			<path d="M506.5,546.5c29.2-0.4,58.4,2.5,87.1,8.1c4.7,0.9,9.6,2,14.2,3.1c14,4.2,27.8,9.6,40.9,16c17.6,8.7,34.2,19.7,48.2,33.4
				c6.9,7,13.2,14.5,18.6,22.6c1.7,2.5,1,5.8-1.5,7.5c-2.3,1.5-5.3,1.1-7-0.9c-12.2-12.9-27-22.9-42.9-30.4
				c-17.9-8.3-37.2-13.6-56.7-16.9c-6.6-0.9-12.9-2.6-19.5-3.6c-17.5-2.9-35.3-4.4-53-4.5c-8.6,0-17.5,0.1-26,0.9
				c-9.8,1.1-18.6-5.9-19.7-15.7C488,556,496.1,546.7,506.5,546.5L506.5,546.5z"/>
		</g>
		<g>
			<path d="M795.1,806.2c10,23.8,13.5,52.2,11.9,78c-3.1,40.3-21.1,79-47.3,109.5c-6.7,7.5-13.7,14.5-20.8,21.5
				c-3.5,3.2-7.3,6.9-10.7,10.3c-2.6,2.5-8.4,7.3-11.1,9.8c-14.8,13-32.2,22.5-50.2,30.1c-18.1,7-31.4-16.4-16.4-28.5
				c4.6-3.9,9.3-7.6,14.1-11.1c6.9-5.5,13.9-10.9,20.9-16.2c2.3-1.7,4.9-3.3,7.2-5.1c2.4-1.8,8.1-6.2,10.4-8
				c3.3-2.7,6.8-5.6,9.9-8.5c8.1-7.9,15.9-16.9,22.7-25.9c19.5-24.5,34.1-52.4,42.5-82.9c6.3-22.3,9.2-46.4,6-69.6
				C783,803,792.2,799.9,795.1,806.2L795.1,806.2z"/>
		</g>
	</g>
</g>
</svg>
