<?xml version="1.0" encoding="utf-8"?>
<!-- Generator: Adobe Illustrator 26.5.0, SVG Export Plug-In . SVG Version: 6.00 Build 0)  -->
<svg version="1.1" id="Capa_1" xmlns="http://www.w3.org/2000/svg" xmlns:xlink="http://www.w3.org/1999/xlink" x="0px" y="0px"
	 viewBox="0 0 595.28 841.89" style="enable-background:new 0 0 595.28 841.89;" xml:space="preserve">
<style type="text/css">
	.st0{fill:#CDCC32;}
	.st1{fill:#B17F4A;}
	.st2{fill:none;stroke:#000000;stroke-width:40;stroke-miterlimit:10;}
	.st3{fill:none;stroke:#000000;stroke-width:13.5409;stroke-miterlimit:10;}
</style>
<path class="st0" d="M-2668.14,300.18l-26.56-75.05l26.56-116.99l48.16-50.31l33.07-33.05l23.2-369.1l53.45-135.47l126.32-158.71
	l165.23-103.85l143.63-39.37l168.98,0.3l198.84,51.46l141.65,118.48l93.07,121.23l62.16,166.72l9.13,126.46l0.57,50.48l60.86,54.78
	l10.88,50.98l-71.75,32.76l23.91,148.59l-33.61,83.51l-54.46,32.3l-10.46,102.97l-47.61,123.94h-36.03l-69.86-27.32l-197.95-37.57
	l-145.35-47.5l-120.2-19.02l-109.85,35.7l-86.58,76.25l-68.84,161.01l-8.72,173.23l68.88,135.48l153.14,108.79l188.69,46.93
	l190.41,7.4l-40.24,50.74l40.24,16.14l-267.65,251.22l-497.74-608.09c-3.25-3.12-44.57-66.12-47.11-69.84l-101.98-153.2l5.59-29.87
	l68.92-91.04l15.38-110.29L-2668.14,300.18z"/>
<polygon class="st1" points="-2072.45,352.37 -2218.71,397.78 -2322.47,518.48 -2357.58,624.77 -2366.29,798 -2297.41,933.48 
	-2144.27,1042.27 -1976.53,1086.37 -1805.41,1097.53 -1685.35,1090.7 -1628.81,1121.65 -1579.1,1096.43 -1539.65,1019.63 
	-1472.55,920.91 -1417.7,877.04 -1400.33,851.74 -1402.57,830.35 -1451.09,792.78 -1481.19,610.04 -1518.91,499.11 -1651.43,446.87 
	-1891.43,391.04 -2066.74,347.22 "/>
<g>
	<path class="st2" d="M-2582.22,62.35v-259.43c0-326.11,264.37-590.48,590.48-590.48s605.35,264.71,590.48,590.48l0.57,50.48
		c0,0,161.43,98.61,0,138.52c-5.17,9.31,123.9,290.74-163.88,273.88"/>
	<g>
		<path d="M-2461.09,128.43c-0.31-27.74-14.58-56.64-41.93-65.82c-12.33-4.32-25.51-5.17-38.39-5.97c-2.22-0.13-4.52-0.16-6.72-0.18
			c0,0-0.16,0-0.16,0c-0.02,0-0.01,0.01-0.02,0.01c0,0-0.32,0.05-0.32,0.05c-32.66-4.52-64.98,11.77-86.53,35.86
			c-44.49,49.33-55.58,128.66-25.11,187.89c14.73,28.71,41.27,51.99,73.58,55.91c0,0,0.8,0.19,0.8,0.19s3.56,0.86,3.56,0.86
			c19.32,5.44,38.83,10.71,58.85,12.93c21.39,2.12,44.3,2.01,62.84-10.77c-21.51,25.98-65.62,31.03-97.47,31.73
			c-11.84-0.21-23.89-0.09-35.51-2.77c-60.78-7.84-106.13-65.78-115.75-130.07c-7.95-49.87,2.36-102.75,30.31-145.08
			c28.34-43.83,79.33-75.49,132.8-67.12c0,0-1.99-0.13-1.99-0.13c5.13,0.17,10.24,0.94,15.21,2.11
			c31.74,7.66,61.22,33.8,69.53,65.37c3.14,11.59,3.74,23.42,3.3,35C-2460.22,128.44-2461.09,128.43-2461.09,128.43L-2461.09,128.43
			z"/>
	</g>
	<path class="st2" d="M-2679.65,583.57l59.67-89.53l31.73-109.05l-1.52-32.62C-2589.77,352.37-2582.22,475.57-2679.65,583.57
		c0,0,312.54,440.4,643.32,841.47c0.62,0.76,1.76,0.82,2.46,0.13l268.7-261.69c0,0-96.26-9.31,0-66.87"/>
</g>
<path class="st2" d="M-1707.1,448.18c133.83,5.38,160.27,1.17,171.34-108.09c8.05-79.43-73.16-129.13-188.2-93.91
	c0,0-27.13,8.21-71.74-11.5c-44.61-19.71-115.04-150.63-481.3-194.34"/>
<path class="st2" d="M-1596.84,457.34l78.19,53.45c0,0,58.7,103.3,65.74,288.78c0,0,89.22,46.96,35.22,77.48
	c-54,30.52-76.43,70.43-118.04,129.13c0,0-46.31,187.83-149.61,84.52c0,0-687.91,89.22-680.87-375.65
	c0,0-11.74-302.61,255.91-362.61c0,0,90-8.35,183.13,36.26c0,0,72.78,23.48,157.3,44.61
	C-1685.35,454.43-1689.12,453.19-1596.84,457.34z"/>
<path class="st2" d="M-1480.02,242.57c0,0,37.55,150.94-55.72,256.53"/>
<g>
	<g>
		<polygon points="-2645.74,-446.86 -2747.63,-47.07 -2785.86,-58.81 -2645.74,-446.86 		"/>
	</g>
	<g>
		<polygon points="-2647.63,-436.95 -2572.51,-20 -2612.16,-14.77 -2647.63,-436.95 		"/>
	</g>
	<g>
		<polygon points="-2389.83,-386.15 -2576.2,-17.05 -2610.99,-36.79 -2389.83,-386.15 		"/>
	</g>
	<g>
		<path d="M-2398.05,15.98c2.15-123.2,5.09-266.64,7.47-389.55c0.17-3.37-0.15-9.2,0.75-12.58c1.1,3.45,1.11,8.89,1.49,12.52
			c0,0,0.98,12.53,0.98,12.53c3.55,45.17,10.13,129.44,13.74,175.42c3.94,49.89,11.75,150.58,15.54,200.49
			C-2358.07,14.81-2398.05,15.98-2398.05,15.98L-2398.05,15.98z"/>
	</g>
</g>
<path class="st2" d="M-1535.74-579.38c0,0-114.4-621.4-539.35-79.06"/>
<path class="st2" d="M-1737-696c0,0-366.26-561.13-551.74,37.57"/>
<path d="M-2494.81,197.64c-4.4-15.82-13.8-30.3-27.6-40.91c0.18-0.05,0.36-0.11,0.55-0.15c-0.34-0.07-0.67-0.13-1.01-0.19
	c-1.51-1.14-3.06-2.25-4.68-3.3c-36.16-23.44-84.46-13.17-107.95,22.94c13.14-1.52,27.41-0.91,41.99,2.1
	c-2.51,3.19-4.58,6.65-6.1,10.35c-10.42,25.33,8.26,52.3,41.73,60.28c-5.05-9.34-7.94-20.25-7.88-31.89
	c0.05-9.83,2.18-19.1,5.94-27.35c33.11,16.01,55.03,42.93,56.56,69.59C-2491.66,240-2489.21,217.75-2494.81,197.64z"/>
<g>
	<path d="M-1420.4-12.31c-16.17-15.22-36.71-29.68-59.08-31.7c-10.47-1.01-20.6,1.67-29.9,6.26c-8.89,3.99-18.09,7.36-27.52,9.94
		c-9.54,2.58-19.3,4.74-29.27,4.82c-14.59,0.13-29.07-3.51-42.64-8.73c0,0-2.18-0.9-2.18-0.9s2.16,0.46,2.16,0.46
		c-11.04-2.81-21.87-6.3-32.42-10.57c-9.16-3.97-22.98-9.72-27.72-18.84c0,0,0.14-0.09,0.14-0.09c1.84,2.04,4.2,3.35,6.62,4.41
		c7.4,3.07,15.42,4.13,23.37,4.95c9.29,0.87,18.75,1.05,28.08,0.83c1.31-0.04,2.7-0.08,3.88-0.16l2.16,0.46
		c-0.07-0.07,0.23-0.02,0.4-0.02l0.64,0.04c7.45,0.46,14.96-0.72,22.23-2.35c7.89-1.79,15.57-3.64,23.35-5.31
		c11.73-2.46,23.37-6.45,34.45-11.28c25.71-12.4,53.91-11.07,78.72,2.17c17.54,9.38,31.84,22.41,43.35,38.27
		c0,0,1.23,1.77,1.23,1.77S-1420.4-12.31-1420.4-12.31L-1420.4-12.31z"/>
</g>
<path class="st2" d="M-1400.33,186.78c0,0-235.26-87.65-396.48,0"/>
<g>
	<path d="M-1891.46,261.65c5.27-2.5,10.52-5.74,15.44-9.06c16.24-11.08,30.72-25.12,42.8-40.67c15.69-19.8,26.62-43.15,36.09-66.52
		c1.43-4.05,3.15-8.1,4.82-12.07c2.12-5.72,4.01-11.56,5.49-17.48c0.63-2.53,1.93-7.69,2.57-10.22c1-4.27,2.48-12.56,3.38-16.89
		c0.63-4.36,1.46-10.14,2.09-14.51c0.79-6.15,1.57-15.18,2.04-21.36c0.17-3.82,0.52-12.34,0.69-16.16
		c0.17-6.39-0.04-15.26-0.01-21.67c-0.36-7.22-0.72-14.47-1.14-21.73c0,0-2.07-21.74-2.07-21.74
		c9.64,35.06,16.22,72.08,17.06,108.92c0.09,2.71,0.14,7.19,0.22,9.83c0.02,0.29-0.35,12-0.35,12.67c-0.02,3.18-0.39,8.08-0.67,11.3
		c-0.3,3.41-0.55,8-1.01,11.33c-1.28,9.47-2.01,19.09-3.95,28.47c-0.7,2.8-2.09,8.44-2.82,11.23
		c-7.86,28.24-22.04,54.55-39.85,77.86c-16.47,20.84-36.3,39.38-59.59,52.48c0,0-1.48,0.79-1.48,0.79
		c-1.19,0.56-2.01,1.11-3.46,1.73C-1875.17,298.18-1891.46,261.65-1891.46,261.65L-1891.46,261.65z"/>
</g>
<g>
	<path d="M-1906.66,314.63c-2.88-5.07-6.5-10.08-10.16-14.74c-12.24-15.39-27.3-28.8-43.69-39.72
		c-20.89-14.21-44.98-23.4-68.98-31.14c-4.14-1.13-8.3-2.55-12.39-3.92c-5.86-1.69-11.82-3.15-17.84-4.2
		c-2.57-0.44-7.81-1.36-10.38-1.81c-4.33-0.68-12.7-1.56-17.09-2.14c-4.4-0.31-10.22-0.71-14.63-1.03
		c-6.19-0.34-15.25-0.46-21.45-0.48c-3.82,0.11-12.34,0.38-16.17,0.49c-6.39,0.3-15.22,1.16-21.61,1.59
		c-7.17,0.89-14.38,1.77-21.59,2.72c0,0-21.53,3.65-21.53,3.65c34.27-12.17,70.71-21.44,107.38-24.96c2.7-0.29,7.16-0.67,9.79-0.94
		c0.29-0.04,11.99-0.53,12.67-0.57c3.17-0.21,8.09-0.2,11.32-0.15c3.42,0.05,8.02-0.04,11.37,0.18c9.54,0.58,19.18,0.61,28.69,1.86
		c2.85,0.49,8.57,1.47,11.41,1.99c28.74,5.78,56.01,18,80.56,34.06c21.99,14.9,41.92,33.33,56.69,55.6c0,0,0.89,1.41,0.89,1.41
		c0.65,1.15,1.25,1.92,1.98,3.33C-1871.41,295.72-1906.66,314.63-1906.66,314.63L-1906.66,314.63z"/>
</g>
<g>
	<path d="M-1905.66,314.63c-2.88-5.07-6.5-10.08-10.16-14.74c-12.24-15.39-27.3-28.8-43.69-39.72
		c-20.89-14.21-44.98-23.4-68.98-31.14c-4.14-1.13-8.3-2.55-12.39-3.92c-5.86-1.69-11.82-3.15-17.84-4.2
		c-2.57-0.44-7.81-1.36-10.38-1.81c-4.33-0.68-12.7-1.56-17.09-2.14c-4.4-0.31-10.22-0.71-14.63-1.03
		c-6.19-0.34-15.25-0.46-21.45-0.48c-3.82,0.11-12.34,0.38-16.17,0.49c-6.39,0.3-15.22,1.16-21.61,1.59
		c-7.17,0.89-14.38,1.77-21.59,2.72c0,0-21.53,3.65-21.53,3.65c34.27-12.17,70.71-21.44,107.38-24.96c2.7-0.29,7.16-0.67,9.79-0.94
		c0.29-0.04,11.99-0.53,12.67-0.57c3.17-0.21,8.09-0.2,11.32-0.15c3.42,0.05,8.02-0.04,11.37,0.18c9.54,0.58,19.18,0.61,28.69,1.86
		c2.85,0.49,8.57,1.47,11.41,1.99c28.74,5.78,56.01,18,80.56,34.06c21.99,14.9,41.92,33.33,56.69,55.6c0,0,0.89,1.41,0.89,1.41
		c0.65,1.15,1.25,1.92,1.98,3.33C-1870.41,295.72-1905.66,314.63-1905.66,314.63L-1905.66,314.63z"/>
</g>
<g>
	<path d="M-1905.66,313.63c-2.88-5.07-6.5-10.08-10.16-14.74c-12.24-15.39-27.3-28.8-43.69-39.72
		c-20.89-14.21-44.98-23.4-68.98-31.14c-4.14-1.13-8.3-2.55-12.39-3.92c-5.86-1.69-11.82-3.15-17.84-4.2
		c-2.57-0.44-7.81-1.36-10.38-1.81c-4.33-0.68-12.7-1.56-17.09-2.14c-4.4-0.31-10.22-0.71-14.63-1.03
		c-6.19-0.34-15.25-0.46-21.45-0.48c-3.82,0.11-12.34,0.38-16.17,0.49c-6.39,0.3-15.22,1.16-21.61,1.59
		c-7.17,0.89-14.38,1.77-21.59,2.72c0,0-21.53,3.65-21.53,3.65c34.27-12.17,70.71-21.44,107.38-24.96c2.7-0.29,7.16-0.67,9.79-0.94
		c0.29-0.04,11.99-0.53,12.67-0.57c3.17-0.21,8.09-0.2,11.32-0.15c3.42,0.05,8.02-0.04,11.37,0.18c9.54,0.58,19.18,0.61,28.69,1.86
		c2.85,0.49,8.57,1.47,11.41,1.99c28.74,5.78,56.01,18,80.56,34.06c21.99,14.9,41.92,33.33,56.69,55.6c0,0,0.89,1.41,0.89,1.41
		c0.65,1.15,1.25,1.92,1.98,3.33C-1870.41,294.72-1905.66,313.63-1905.66,313.63L-1905.66,313.63z"/>
</g>
<g>
	<path d="M-1905.66,312.63c-2.88-5.07-6.5-10.08-10.16-14.74c-12.24-15.39-27.3-28.8-43.69-39.72
		c-20.89-14.21-44.98-23.4-68.98-31.14c-4.14-1.13-8.3-2.55-12.39-3.92c-5.86-1.69-11.82-3.15-17.84-4.2
		c-2.57-0.44-7.81-1.36-10.38-1.81c-4.33-0.68-12.7-1.56-17.09-2.14c-4.4-0.31-10.22-0.71-14.63-1.03
		c-6.19-0.34-15.25-0.46-21.45-0.48c-3.82,0.11-12.34,0.38-16.17,0.49c-6.39,0.3-15.22,1.16-21.61,1.59
		c-7.17,0.89-14.38,1.77-21.59,2.72c0,0-21.53,3.65-21.53,3.65c34.27-12.17,70.71-21.44,107.38-24.96c2.7-0.29,7.16-0.67,9.79-0.94
		c0.29-0.04,11.99-0.53,12.67-0.57c3.17-0.21,8.09-0.2,11.32-0.15c3.42,0.05,8.02-0.04,11.37,0.18c9.54,0.58,19.18,0.61,28.69,1.86
		c2.85,0.49,8.57,1.47,11.41,1.99c28.74,5.78,56.01,18,80.56,34.06c21.99,14.9,41.92,33.33,56.69,55.6c0,0,0.89,1.41,0.89,1.41
		c0.65,1.15,1.25,1.92,1.98,3.33C-1870.41,293.72-1905.66,312.63-1905.66,312.63L-1905.66,312.63z"/>
</g>
<g>
	<path d="M-1905.66,311.63c-2.88-5.07-6.5-10.08-10.16-14.74c-12.24-15.39-27.3-28.8-43.69-39.72
		c-20.89-14.21-44.98-23.4-68.98-31.14c-4.14-1.13-8.3-2.55-12.39-3.92c-5.86-1.69-11.82-3.15-17.84-4.2
		c-2.57-0.44-7.81-1.36-10.38-1.81c-4.33-0.68-12.7-1.56-17.09-2.14c-4.4-0.31-10.22-0.71-14.63-1.03
		c-6.19-0.34-15.25-0.46-21.45-0.48c-3.82,0.11-12.34,0.38-16.17,0.49c-6.39,0.3-15.22,1.16-21.61,1.59
		c-7.17,0.89-14.38,1.77-21.59,2.72c0,0-21.53,3.65-21.53,3.65c34.27-12.17,70.71-21.44,107.38-24.96c2.7-0.29,7.16-0.67,9.79-0.94
		c0.29-0.04,11.99-0.53,12.67-0.57c3.17-0.21,8.09-0.2,11.32-0.15c3.42,0.05,8.02-0.04,11.37,0.18c9.54,0.58,19.18,0.61,28.69,1.86
		c2.85,0.49,8.57,1.47,11.41,1.99c28.74,5.78,56.01,18,80.56,34.06c21.99,14.9,41.92,33.33,56.69,55.6c0,0,0.89,1.41,0.89,1.41
		c0.65,1.15,1.25,1.92,1.98,3.33C-1870.41,292.72-1905.66,311.63-1905.66,311.63L-1905.66,311.63z"/>
</g>
<g>
	<path d="M-1905.66,310.63c-2.88-5.07-6.5-10.08-10.16-14.74c-12.24-15.39-27.3-28.8-43.69-39.72
		c-20.89-14.21-44.98-23.4-68.98-31.14c-4.14-1.13-8.3-2.55-12.39-3.92c-5.86-1.69-11.82-3.15-17.84-4.2
		c-2.57-0.44-7.81-1.36-10.38-1.81c-4.33-0.68-12.7-1.56-17.09-2.14c-4.4-0.31-10.22-0.71-14.63-1.03
		c-6.19-0.34-15.25-0.46-21.45-0.48c-3.82,0.11-12.34,0.38-16.17,0.49c-6.39,0.3-15.22,1.16-21.61,1.59
		c-7.17,0.89-14.38,1.77-21.59,2.72c0,0-21.53,3.65-21.53,3.65c34.27-12.17,70.71-21.44,107.38-24.96c2.7-0.29,7.16-0.67,9.79-0.94
		c0.29-0.04,11.99-0.53,12.67-0.57c3.17-0.21,8.09-0.2,11.32-0.15c3.42,0.05,8.02-0.04,11.37,0.18c9.54,0.58,19.18,0.61,28.69,1.86
		c2.85,0.49,8.57,1.47,11.41,1.99c28.74,5.78,56.01,18,80.56,34.06c21.99,14.9,41.92,33.33,56.69,55.6c0,0,0.89,1.41,0.89,1.41
		c0.65,1.15,1.25,1.92,1.98,3.33C-1870.41,291.72-1905.66,310.63-1905.66,310.63L-1905.66,310.63z"/>
</g>
<g>
	<path d="M-1905.66,309.63c-2.88-5.07-6.5-10.08-10.16-14.74c-12.24-15.39-27.3-28.8-43.69-39.72
		c-20.89-14.21-44.98-23.4-68.98-31.14c-4.14-1.13-8.3-2.55-12.39-3.92c-5.86-1.69-11.82-3.15-17.84-4.2
		c-2.57-0.44-7.81-1.36-10.38-1.81c-4.33-0.68-12.7-1.56-17.09-2.14c-4.4-0.31-10.22-0.71-14.63-1.03
		c-6.19-0.34-15.25-0.46-21.45-0.48c-3.82,0.11-12.34,0.38-16.17,0.49c-6.39,0.3-15.22,1.16-21.61,1.59
		c-7.17,0.89-14.38,1.77-21.59,2.72c0,0-21.53,3.65-21.53,3.65c34.27-12.17,70.71-21.44,107.38-24.96c2.7-0.29,7.16-0.67,9.79-0.94
		c0.29-0.04,11.99-0.53,12.67-0.57c3.17-0.21,8.09-0.2,11.32-0.15c3.42,0.05,8.02-0.04,11.37,0.18c9.54,0.58,19.18,0.61,28.69,1.86
		c2.85,0.49,8.57,1.47,11.41,1.99c28.74,5.78,56.01,18,80.56,34.06c21.99,14.9,41.92,33.33,56.69,55.6c0,0,0.89,1.41,0.89,1.41
		c0.65,1.15,1.25,1.92,1.98,3.33C-1870.41,290.72-1905.66,309.63-1905.66,309.63L-1905.66,309.63z"/>
</g>
<g>
	<path d="M-1904.66,309.63c-2.88-5.07-6.5-10.08-10.16-14.74c-12.24-15.39-27.3-28.8-43.69-39.72
		c-20.89-14.21-44.98-23.4-68.98-31.14c-4.14-1.13-8.3-2.55-12.39-3.92c-5.86-1.69-11.82-3.15-17.84-4.2
		c-2.57-0.44-7.81-1.36-10.38-1.81c-4.33-0.68-12.7-1.56-17.09-2.14c-4.4-0.31-10.22-0.71-14.63-1.03
		c-6.19-0.34-15.25-0.46-21.45-0.48c-3.82,0.11-12.34,0.38-16.17,0.49c-6.39,0.3-15.22,1.16-21.61,1.59
		c-7.17,0.89-14.38,1.77-21.59,2.72c0,0-21.53,3.65-21.53,3.65c34.27-12.17,70.71-21.44,107.38-24.96c2.7-0.29,7.16-0.67,9.79-0.94
		c0.29-0.04,11.99-0.53,12.67-0.57c3.17-0.21,8.09-0.2,11.32-0.15c3.42,0.05,8.02-0.04,11.37,0.18c9.54,0.58,19.18,0.61,28.69,1.86
		c2.85,0.49,8.57,1.47,11.41,1.99c28.74,5.78,56.01,18,80.56,34.06c21.99,14.9,41.92,33.33,56.69,55.6c0,0,0.89,1.41,0.89,1.41
		c0.65,1.15,1.25,1.92,1.98,3.33C-1869.41,290.72-1904.66,309.63-1904.66,309.63L-1904.66,309.63z"/>
</g>
<g>
	<path d="M-2160.43-185.36c-23.24,16.41-41.85,39.08-55.89,63.62c-6.77,12.08-12.38,24.6-16.78,37.42
		c-3.09,9.66-6.15,19.23-9.5,28.77c-1.75,4.62-3.17,9.79-5.34,14.23c-3.69,7.72-6.44,16.07-8.81,24.3
		c-0.88,2.86-2.16,7.17-2.79,10.07c-0.4,1.76-2.78,11.15-3.04,12.8c-0.89,4.79-2.08,10.83-2.94,15.63
		c-0.63,4.92-1.97,13.62-2.49,18.52c-0.33,3.64-1.1,12.38-1.43,16.07c-0.45,6.3-0.66,15.28-0.97,21.63
		c-0.16,12.8,0.35,30.72,1.12,43.64c0,0-5.76-21.22-5.76-21.22c-2.39-10.26-5.12-21.95-6.85-32.47c-0.59-3.36-1.44-7.69-1.88-10.98
		c-0.8-6.55-2.23-15.76-2.7-22.22c-0.31-4.09-1.16-12.93-1.26-16.87c-0.08-2.84-0.28-8.5-0.36-11.33c-0.05-1.66-0.16-4.06-0.11-5.69
		c0.14-6.65,0.18-16.35,0.8-22.89c0.34-3.4,0.45-8.18,0.93-11.52c1.11-7.62,1.29-15.53,2.95-23.19c1.37-6.71,3.84-13.13,6.13-19.57
		c3.37-8.18,7.64-15.96,12.38-23.41C-2240.24-138.41-2204.4-171.56-2160.43-185.36L-2160.43-185.36z"/>
</g>
<g>
	<path d="M-2032.64-207.08c55.08,12.81,122.19,40.18,159.5,84.2c11.26,13.06,14.96,23.4,18.33,40.15
		c4.25,18.26,22.1,28.94,39.97,33.3c25.35,6.04,53.47,2.79,77.03-8.71c25.47-12.24,43.35-35.89,43.06-65
		c3.17,19.33-2.17,39.91-14.37,55.55c-36.21,47.51-129.56,63.96-170.18,13.34c-5.3-6.66-9.11-14.42-11.9-22.44
		c-2.26-5.75-5.74-10.69-8.46-16.32c-1.69-3.44-3.65-7.32-5.68-10.62c-19.16-30.38-49.09-53.32-78.67-73.35
		c-15.71-10.39-32.07-20.15-49.02-29.02C-2033.01-205.99-2032.64-207.08-2032.64-207.08L-2032.64-207.08z"/>
</g>
<path d="M-1591.44,878l11.49,1.61c0.7,0.1,1.13-0.75,0.64-1.26c-18.06-18.89-36.2-16-48.61-9.88c-0.02,0.01-0.04,0.02-0.06,0.03
	c-15.74,5.38-33.02,26.6-43.01,55.04c-12.99,36.99-8.74,72.18,9.5,78.58c18.24,6.41,43.56-18.39,56.55-55.38
	c8.87-25.26,9.12-38.91,5.94-55.09c-0.12-0.6,1.04-6.52,4.56-11.15C-1593.5,879.26-1592.98,877.78-1591.44,878z"/>
<path class="st0" d="M68.96,438.59l-8.99-25.41l8.99-39.6l16.3-17.03l11.19-11.19l7.85-124.95l18.09-45.86l42.76-53.73l55.93-35.16
	l48.62-13.33l57.2,0.1l67.31,17.42l47.95,40.11l31.51,41.04l21.04,56.44l3.09,42.81l0.19,17.09l20.6,18.55l3.68,17.26l-24.29,11.09
	l8.09,50.3l-11.38,28.27l-18.44,10.94l-3.54,34.86l-16.12,41.96h-12.2l-23.65-9.25l-67.01-12.72l-49.2-16.08l-40.69-6.44
	l-37.19,12.08l-29.31,25.81l-23.3,54.5l-2.95,58.64l23.32,45.86l51.84,36.83l63.87,15.89l64.46,2.5l-13.62,17.18l13.62,5.46
	l-90.61,85.04l-168.5-205.85c-1.1-1.06-15.09-22.38-15.95-23.64l-34.52-51.86l1.89-10.11l23.33-30.82l5.21-37.34L68.96,438.59z"/>
<polygon class="st1" points="270.61,456.26 221.1,471.63 185.97,512.49 174.09,548.47 171.14,607.12 194.46,652.98 246.3,689.81 
	303.08,704.74 361.01,708.51 401.65,706.2 420.79,716.68 437.62,708.14 450.97,682.14 473.69,648.72 492.26,633.87 498.14,625.31 
	497.38,618.07 480.96,605.35 470.77,543.49 458,505.93 413.13,488.25 331.89,469.35 272.54,454.52 "/>
<g>
	<path class="st3" d="M98.04,358.08v-87.82c0-110.4,89.49-199.89,199.89-199.89s204.93,89.61,199.89,199.89l0.19,17.09
		c0,0,54.65,33.38,0,46.89c-1.75,3.15,41.94,98.42-55.48,92.72"/>
	<g>
		<path d="M139.05,380.45c-0.12-7.55-3.17-15.44-9.39-19.82c-5.59-3.91-12.54-4.19-19.06-4.53c-0.3,0-0.93-0.05-1.17,0.01
			c0,0-0.59-0.06-0.59-0.06c-10.91-1.24-21.46,4.12-28.73,12.21c-18.44,20.23-20.36,57.92,1.76,76.25
			c4.36,3.48,9.51,5.61,14.92,6.34c6.93,1.83,13.95,3.91,21.13,4.67c7.24,0.72,15,0.68,21.27-3.64
			c-7.64,8.95-21.88,10.42-32.99,10.74c-52.83,2.36-67.52-67.43-34.48-102.21c9.58-10.31,24.2-16.86,38.49-14.58
			c0,0-0.67-0.05-0.67-0.05c4.52,0.19,8.89,1.51,12.83,3.68c7.43,4.13,13.74,10.97,15.85,19.16c1.05,3.93,1.29,7.93,1.12,11.85
			C139.34,380.45,139.05,380.45,139.05,380.45L139.05,380.45z"/>
	</g>
	<path class="st3" d="M65.06,534.52l20.2-30.31L96,467.3l-0.51-11.04C95.49,456.26,98.04,497.96,65.06,534.52
		c0,0,105.8,149.09,217.78,284.86c0.21,0.26,0.6,0.28,0.83,0.05l90.96-88.59c0,0-32.59-3.15,0-22.64"/>
</g>
<path class="st3" d="M394.29,488.69c45.3,1.82,54.26,0.39,58-36.59c2.72-26.89-24.77-43.71-63.71-31.79c0,0-9.18,2.78-24.29-3.89
	c-15.1-6.67-38.94-50.99-162.93-65.79"/>
<path class="st3" d="M431.61,491.79l26.47,18.09c0,0,19.87,34.97,22.25,97.76c0,0,30.2,15.9,11.92,26.23
	c-18.28,10.33-25.87,23.84-39.96,43.71c0,0-15.68,63.58-50.65,28.61c0,0-232.87,30.2-230.49-127.17c0,0-3.97-102.44,86.63-122.75
	c0,0,30.47-2.83,61.99,12.27c0,0,24.64,7.95,53.25,15.1S400.38,490.39,431.61,491.79z"/>
<path class="st3" d="M471.16,419.09c0,0,12.71,51.1-18.86,86.84"/>
<g>
	<g>
		<polygon points="76.54,185.7 42.05,321.04 29.1,317.06 76.54,185.7 		"/>
	</g>
	<g>
		<polygon points="75.9,189.06 101.33,330.21 87.9,331.97 75.9,189.06 		"/>
	</g>
	<g>
		<polygon points="163.17,206.25 100.08,331.2 88.3,324.52 163.17,206.25 		"/>
	</g>
	<g>
		<path d="M160.39,342.38c0.66-35.55,1.74-92.62,2.45-127.62c0,0,0.08-4.25,0.08-4.25c0.06-1.18-0.05-3.08,0.25-4.26
			c0.38,1.16,0.37,3.02,0.5,4.24c0,0,0.33,4.24,0.33,4.24c1.2,15.31,3.43,43.81,4.65,59.38c0,0,5.26,67.87,5.26,67.87L160.39,342.38
			L160.39,342.38z"/>
	</g>
</g>
<path class="st3" d="M452.3,140.84c0,0-38.73-210.36-182.58-26.76"/>
<path class="st3" d="M384.17,101.36c0,0-123.99-189.96-186.78,12.72"/>
<path d="M127.63,403.88c-1.49-5.36-4.67-10.26-9.34-13.85c0.06-0.02,0.12-0.04,0.19-0.05c-0.11-0.02-0.23-0.04-0.34-0.07
	c-0.51-0.39-1.04-0.76-1.58-1.12c-12.24-7.94-28.59-4.46-36.54,7.77c4.45-0.51,9.28-0.31,14.21,0.71c-0.85,1.08-1.55,2.25-2.07,3.5
	c-3.53,8.57,2.8,17.7,14.13,20.41c-1.71-3.16-2.69-6.85-2.67-10.8c0.02-3.33,0.74-6.47,2.01-9.26
	c11.21,5.42,18.63,14.53,19.15,23.56C128.7,418.22,129.53,410.69,127.63,403.88z"/>
<g>
	<path d="M491.34,332.81c-6.28-5.85-14.5-11.6-23.37-10.68c-4.03,0.34-7.55,2.67-11.34,3.9c-7.04,2.6-14.79,4.21-22.25,2.29
		c-2.62-0.62-5.06-1.32-7.57-2.4c0,0,0.73,0.16,0.73,0.16c-5.81-1.65-17.26-4.69-20.36-9.95c2.75,2.36,6.67,2.73,10.2,3.14
		c3.55,0.32,7.29,0.39,10.82,0.23c0,0,0.73,0.16,0.73,0.16c2.63,0.15,5.32-0.19,7.88-0.79c4.7-1.12,11.25-2.34,15.73-4.09
		c2.91-1.01,5.84-2.56,8.82-3.4c7.21-2.08,15.14-0.88,21.66,2.62c6.17,3.3,11.13,7.87,15.09,13.54
		C498.12,327.54,491.34,332.81,491.34,332.81L491.34,332.81z"/>
</g>
<path class="st3" d="M498.14,400.2c0,0-79.64-29.67-134.22,0"/>
<g>
	<path d="M331.88,425.55c11.77-6.03,20.95-16.6,26.99-28.32c2-4.03,3.99-8.47,5.56-12.67c2.82-6.52,4.31-13.65,5.31-20.67
		c1.4-9.49,1.45-19.6,0.81-29.18c0,0-0.7-7.36-0.7-7.36c3.25,11.89,5.53,24.38,5.79,36.87c0.25,7.7-0.49,15.3-1.63,22.99
		c-1.78,10.3-6.38,20.09-12.42,28.86c-6.13,8.72-14.09,16.46-23.57,21.53c0,0-0.65,0.32-0.65,0.32L331.88,425.55L331.88,425.55z"/>
</g>
<g>
	<path d="M326.73,443.48c-6.87-11.3-18.08-19.68-30.21-24.85c-4.16-1.7-8.74-3.37-13.04-4.62c-6.71-2.33-13.93-3.3-21-3.79
		c-9.57-0.71-19.65-0.02-29.16,1.32c0,0-7.29,1.24-7.29,1.24c11.62-4.11,23.91-7.29,36.35-8.47c7.66-0.81,15.3-0.63,23.04-0.05
		c10.4,1.02,20.51,4.9,29.69,10.28c9.14,5.48,17.45,12.85,23.19,21.93c0,0,0.36,0.63,0.36,0.63S326.73,443.48,326.73,443.48
		L326.73,443.48z"/>
</g>
<g>
	<path d="M327.07,443.48c-6.87-11.3-18.08-19.68-30.21-24.85c-4.16-1.7-8.74-3.37-13.04-4.62c-6.71-2.33-13.93-3.3-21-3.79
		c-9.57-0.71-19.65-0.02-29.16,1.32c0,0-7.29,1.24-7.29,1.24c11.62-4.11,23.91-7.29,36.35-8.47c7.66-0.81,15.3-0.63,23.04-0.05
		c10.4,1.02,20.51,4.9,29.69,10.28c9.14,5.48,17.45,12.85,23.19,21.93c0,0,0.36,0.63,0.36,0.63S327.07,443.48,327.07,443.48
		L327.07,443.48z"/>
</g>
<g>
	<path d="M327.07,443.15c-6.87-11.3-18.08-19.68-30.21-24.85c-4.16-1.7-8.74-3.37-13.04-4.62c-6.71-2.33-13.93-3.3-21-3.79
		c-9.57-0.71-19.65-0.02-29.16,1.32c0,0-7.29,1.24-7.29,1.24c11.62-4.11,23.91-7.29,36.35-8.47c7.66-0.81,15.3-0.63,23.04-0.05
		c10.4,1.02,20.51,4.9,29.69,10.28c9.14,5.48,17.45,12.85,23.19,21.93c0,0,0.36,0.63,0.36,0.63S327.07,443.15,327.07,443.15
		L327.07,443.15z"/>
</g>
<g>
	<path d="M327.07,442.81c-6.87-11.3-18.08-19.68-30.21-24.85c-4.16-1.7-8.74-3.37-13.04-4.62c-6.71-2.33-13.93-3.3-21-3.79
		c-9.57-0.71-19.65-0.02-29.16,1.32c0,0-7.29,1.24-7.29,1.24c11.62-4.11,23.91-7.29,36.35-8.47c7.66-0.81,15.3-0.63,23.04-0.05
		c10.4,1.02,20.51,4.9,29.69,10.28c9.14,5.48,17.45,12.85,23.19,21.93c0,0,0.36,0.63,0.36,0.63L327.07,442.81L327.07,442.81z"/>
</g>
<g>
	<path d="M327.07,442.47c-6.87-11.3-18.08-19.68-30.21-24.85c-4.16-1.7-8.74-3.37-13.04-4.62c-6.71-2.33-13.93-3.3-21-3.79
		c-9.57-0.71-19.65-0.02-29.16,1.32c0,0-7.29,1.24-7.29,1.24c11.62-4.11,23.91-7.29,36.35-8.47c7.66-0.81,15.3-0.63,23.04-0.05
		c10.4,1.02,20.51,4.9,29.69,10.28c9.14,5.48,17.45,12.85,23.19,21.93c0,0,0.36,0.63,0.36,0.63L327.07,442.47L327.07,442.47z"/>
</g>
<g>
	<path d="M327.07,442.13c-6.87-11.3-18.08-19.68-30.21-24.85c-4.16-1.7-8.74-3.37-13.04-4.62c-6.71-2.33-13.93-3.3-21-3.79
		c-9.57-0.71-19.65-0.02-29.16,1.32c0,0-7.29,1.24-7.29,1.24c11.62-4.11,23.91-7.29,36.35-8.47c7.66-0.81,15.3-0.63,23.04-0.05
		c10.4,1.02,20.51,4.9,29.69,10.28c9.14,5.48,17.45,12.85,23.19,21.93c0,0,0.36,0.63,0.36,0.63L327.07,442.13L327.07,442.13z"/>
</g>
<g>
	<path d="M327.07,441.79c-6.87-11.3-18.08-19.68-30.21-24.85c-4.16-1.7-8.74-3.37-13.04-4.62c-6.71-2.33-13.93-3.3-21-3.79
		c-9.57-0.71-19.65-0.02-29.16,1.32c0,0-7.29,1.24-7.29,1.24c11.62-4.11,23.91-7.29,36.35-8.47c7.66-0.81,15.3-0.63,23.04-0.05
		c10.4,1.02,20.51,4.9,29.69,10.28c9.14,5.48,17.45,12.85,23.19,21.93c0,0,0.36,0.63,0.36,0.63L327.07,441.79L327.07,441.79z"/>
</g>
<g>
	<path d="M327.41,441.79c-6.87-11.3-18.08-19.68-30.21-24.85c-4.16-1.7-8.74-3.37-13.04-4.62c-6.71-2.33-13.93-3.3-21-3.79
		c-9.57-0.71-19.65-0.02-29.16,1.32c0,0-7.29,1.24-7.29,1.24c11.62-4.11,23.91-7.29,36.35-8.47c7.66-0.81,15.3-0.63,23.04-0.05
		c10.4,1.02,20.51,4.9,29.69,10.28c9.14,5.48,17.45,12.85,23.19,21.93c0,0,0.36,0.63,0.36,0.63L327.41,441.79L327.41,441.79z"/>
</g>
<g>
	<path d="M240.83,274.23c-11.7,8.36-19.93,20.81-24.6,34.2c-1.17,3.79-3.01,9.17-4.35,12.96c-7.85,17.73-9.07,37.37-7.9,56.65
		c-4.22-14.29-6.82-29.66-6.33-44.75c0.41-7.69,0.72-15.95,3.98-23.17C209.28,294.06,223.76,279.67,240.83,274.23L240.83,274.23z"/>
</g>
<g>
	<path d="M284.09,266.87c18.9,4.59,39.52,12.72,53.08,27.45c1.09,1.28,2.54,3.03,3.44,4.43c1.99,2.99,2.9,6.69,3.7,10.19
		c0.08,0.49,0.29,1.11,0.48,1.56c0.1,0.25,0.16,0.53,0.3,0.77c2.28,4.8,7.45,7.68,12.73,8.97c11.24,2.68,24.85,0.09,33.52-8.14
		c4.56-4.31,7.12-10.46,7.13-16.82c1.72,10.16-3.84,20.25-12.3,25.82c-14.97,10.35-41.19,12.46-51.94-5.16
		c-0.97-1.54-1.59-3.28-2.27-4.93c-1.09-2.51-2.62-4.8-3.76-7.32c-1.68-3.14-3.78-5.96-6.23-8.73c-8.28-9.3-18.81-16.57-29.55-23.02
		c-2.77-1.63-5.59-3.21-8.46-4.71C283.96,267.24,284.09,266.87,284.09,266.87L284.09,266.87z"/>
</g>
<path d="M433.44,634.2l3.89,0.54c0.24,0.03,0.38-0.25,0.22-0.43c-6.11-6.39-12.25-5.42-16.45-3.34c-0.01,0-0.01,0.01-0.02,0.01
	c-5.33,1.82-11.18,9-14.56,18.63c-4.4,12.52-2.96,24.43,3.22,26.6c6.17,2.17,14.75-6.23,19.14-18.75c3-8.55,3.09-13.17,2.01-18.65
	c-0.04-0.2,0.35-2.21,1.54-3.78C432.75,634.62,432.92,634.12,433.44,634.2z"/>
<g id="Capa_2">
</g>
</svg>
