<?xml version="1.0" encoding="utf-8"?>
<!-- Generator: Adobe Illustrator 26.5.0, SVG Export Plug-In . SVG Version: 6.00 Build 0)  -->
<svg version="1.1" id="Capa_1" xmlns="http://www.w3.org/2000/svg" xmlns:xlink="http://www.w3.org/1999/xlink" x="0px" y="0px"
	 viewBox="0 0 2000 2000" style="enable-background:new 0 0 2000 2000;" xml:space="preserve">
<style type="text/css">
	.Estilo_x0020_gráfico{fill:#3C3C3B;stroke:#706F6F;stroke-width:20;stroke-miterlimit:10;}
	.st0{fill:#3C3C3B;}
	.st1{fill:#706F6F;}
	.st2{fill:#BC9E77;}
	.st3{fill:#CBBBA0;}
	.st4{fill:#575756;}
	.st5{fill:#010202;stroke:#000000;stroke-miterlimit:10;}
</style>
<g>
	<path class="st0" d="M1115.82,1493.37c-28.57-0.51-52.21-25.89-52.7-56.58l-1.4-88.28h-123.8l1.44,90.81
		c0.24,15.28-5.2,29.36-15.34,39.66c-9.14,9.29-21.23,14.4-34.05,14.4c-0.29,0-0.59,0-0.88-0.01c-28.57-0.51-52.21-25.89-52.7-56.58
		l-1.39-87.56V1196l-52.31,48.73c-10.54,9.82-23.86,15.23-37.52,15.23c-14.23,0-27.12-5.8-36.29-16.34
		c-18.76-21.56-15.76-56.11,6.7-77.03l63.73-59.37c10.53-9.81,23.85-15.21,37.5-15.21c2.29,0,4.59,0.16,6.83,0.46l11.36,1.56v-5.52
		h318.58l1.62-0.57c5.7-2.02,11.76-3.04,18.01-3.04c15.68,0,31.08,6.55,42.25,17.96l60.89,62.27
		c10.81,11.05,16.54,25.19,16.13,39.79c-0.37,13.17-5.86,25.25-15.45,34.02c-9.28,8.48-21.67,13.15-34.9,13.15c0,0,0,0,0,0
		c-15.69,0-31.1-6.55-42.27-17.97l-34.86-35.64v150.05h-0.35l1.44,90.81c0.24,15.28-5.2,29.36-15.34,39.66
		c-9.14,9.29-21.23,14.4-34.05,14.4C1116.41,1493.38,1116.12,1493.38,1115.82,1493.37z"/>
	<path class="st1" d="M1173.21,1094.9c13.01,0,25.8,5.45,35.1,14.95l60.89,62.27c8.9,9.1,13.61,20.65,13.28,32.52
		c-0.29,10.44-4.63,20-12.2,26.92c-7.43,6.79-17.43,10.53-28.16,10.53c-13.02,0-25.82-5.45-35.12-14.97l-17.71-18.11l-34.3-35.07
		v49.06v115.52h-0.51l0.32,20.32l1.28,80.65c0.2,12.58-4.23,24.11-12.46,32.48c-7.25,7.36-16.81,11.42-26.92,11.42
		c-0.23,0-0.47,0-0.7-0.01c-23.24-0.42-42.48-21.38-42.88-46.74l-1.25-78.44l-0.31-19.68h-19.69h-103.8h-20.32l0.32,20.32
		l1.28,80.65c0.2,12.58-4.23,24.11-12.46,32.48c-7.25,7.36-16.81,11.42-26.92,11.42c-0.23,0-0.47,0-0.7-0.01
		c-23.24-0.42-42.48-21.38-42.88-46.74l-1.25-78.44l-0.14-9.05v-130.16v-45.97l-33.63,31.33l-35.49,33.07
		c-8.68,8.09-19.59,12.55-30.7,12.55c-11.29,0-21.5-4.58-28.74-12.9c-15.26-17.54-12.58-45.86,5.97-63.15l63.73-59.37
		c8.67-8.08,19.57-12.53,30.68-12.53c1.84,0,3.68,0.12,5.48,0.37l22.71,3.11v-6.99h306.86h3.43l3.24-1.15
		C1163.16,1095.73,1168.1,1094.9,1173.21,1094.9 M1173.21,1074.9c-7.29,0-14.52,1.2-21.35,3.61H825v4.06
		c-2.7-0.37-5.44-0.56-8.19-0.56c-15.55,0-31.48,5.93-44.32,17.9l-63.73,59.37c-26.4,24.59-29.72,65.29-7.42,90.91
		c11.45,13.15,27.42,19.77,43.83,19.77c15.55,0,31.49-5.94,44.33-17.91l35.49-33.07v139.52h0.15l1.25,78.44
		c0.57,36.07,28.56,65.81,62.52,66.42h0c0.35,0.01,0.71,0.01,1.06,0.01c33.46,0,59.95-28.52,59.39-64.22l-1.28-80.65h103.8
		l1.25,78.44c0.57,36.07,28.56,65.81,62.52,66.42h0c0.35,0.01,0.71,0.01,1.06,0.01c33.46,0,59.95-28.52,59.39-64.22l-1.28-80.65
		h0.19v-135.52l17.71,18.11c13.59,13.89,31.69,20.98,49.42,20.98c15.18,0,30.08-5.2,41.65-15.76l0,0
		c25.07-22.91,24.95-62.39-0.28-88.18l-60.89-62.27C1209.02,1081.98,1190.93,1074.9,1173.21,1074.9L1173.21,1074.9z"/>
	<path d="M1173.21,1074.9c17.72,0,35.81,7.08,49.4,20.97l60.89,62.27c25.22,25.79,25.35,65.27,0.28,88.18l0,0
		c-11.57,10.57-26.47,15.76-41.65,15.76c-17.73,0-35.83-7.09-49.42-20.98l-17.71-18.11v135.52h-0.19l1.28,80.65
		c0.57,35.7-25.93,64.22-59.39,64.22c-0.35,0-0.71,0-1.06-0.01h0c-33.96-0.61-61.95-30.35-62.52-66.42l-1.25-78.44h-103.8
		l1.28,80.65c0.57,35.7-25.93,64.22-59.39,64.22c-0.35,0-0.71,0-1.06-0.01h0c-33.96-0.61-61.95-30.35-62.52-66.42l-1.25-78.44H825
		v-139.52l-35.49,33.07c-12.85,11.97-28.78,17.91-44.33,17.91c-16.41,0-32.38-6.62-43.83-19.77c-22.3-25.62-18.97-66.32,7.42-90.91
		l63.73-59.37c12.84-11.96,28.77-17.9,44.32-17.9c2.75,0,5.49,0.19,8.19,0.56v-4.06h326.86
		C1158.69,1076.09,1165.92,1074.9,1173.21,1074.9 M1173.21,1054.9c-8.42,0-16.65,1.21-24.54,3.61H825h-20v4.36
		c-16.98,2.46-33.04,10.21-46.14,22.41l-63.73,59.37c-16.42,15.3-26.46,35.93-28.27,58.08c-1.84,22.59,5.04,44.11,19.39,60.6
		c14.74,16.93,36.21,26.64,58.92,26.64c21.27,0,41.85-8.27,57.97-23.28l1.86-1.73v93.56v20h0.46l0.93,58.76
		c0.36,22.44,8.94,43.71,24.18,59.9c15.53,16.5,36.13,25.81,57.98,26.2c0.47,0.01,0.95,0.01,1.42,0.01
		c20.92,0,40.61-8.29,55.43-23.36c15.82-16.07,24.32-37.8,23.95-61.18l-0.96-60.33h63.79l0.93,58.76
		c0.36,22.44,8.94,43.71,24.18,59.9c15.53,16.5,36.13,25.81,57.98,26.2c0.47,0.01,0.95,0.01,1.42,0.01
		c20.92,0,40.61-8.29,55.43-23.36c15.82-16.07,24.32-37.8,23.95-61.18l-1.09-68.56v-11.78v-90.09c14.1,8.82,30.49,13.66,47.13,13.66
		c20.74,0,40.32-7.46,55.14-21c15.65-14.3,24.6-33.95,25.2-55.32c0.63-22.48-8.36-44.93-24.67-61.61l-60.89-62.27
		C1220.13,1064.73,1196.92,1054.9,1173.21,1054.9L1173.21,1054.9z"/>
</g>
<g>
	<path class="st0" d="M1000,1240c-64.11,0-124.38-24.96-169.71-70.29C784.96,1124.38,760,1064.11,760,1000
		s24.96-124.38,70.29-169.71S935.89,760,1000,760s124.38,24.96,169.71,70.29c45.33,45.33,70.29,105.6,70.29,169.71
		s-24.96,124.38-70.29,169.71C1124.38,1215.04,1064.11,1240,1000,1240z"/>
	<path class="st1" d="M1000,770c31.06,0,61.18,6.08,89.52,18.07c27.39,11.58,51.99,28.17,73.11,49.3
		c21.13,21.13,37.72,45.73,49.3,73.11c11.99,28.34,18.07,58.46,18.07,89.52c0,31.06-6.08,61.18-18.07,89.52
		c-11.58,27.39-28.17,51.99-49.3,73.11c-21.13,21.13-45.73,37.72-73.11,49.3c-28.34,11.99-58.46,18.07-89.52,18.07
		c-31.06,0-61.18-6.08-89.52-18.07c-27.39-11.58-51.99-28.17-73.11-49.3c-21.13-21.13-37.72-45.73-49.3-73.11
		C776.08,1061.18,770,1031.06,770,1000c0-31.06,6.08-61.18,18.07-89.52c11.58-27.39,28.17-51.99,49.3-73.11
		c21.13-21.13,45.73-37.72,73.11-49.3C938.82,776.08,968.94,770,1000,770 M1000,750c-138.07,0-250,111.93-250,250
		s111.93,250,250,250s250-111.93,250-250S1138.07,750,1000,750L1000,750z"/>
	<path d="M1000,750c138.07,0,250,111.93,250,250s-111.93,250-250,250s-250-111.93-250-250S861.93,750,1000,750 M1000,730
		c-36.44,0-71.8,7.14-105.1,21.23c-32.15,13.6-61.03,33.07-85.82,57.85c-24.79,24.79-44.26,53.66-57.85,85.82
		C737.14,928.2,730,963.56,730,1000c0,36.44,7.14,71.8,21.23,105.1c13.6,32.15,33.07,61.03,57.85,85.82
		c24.79,24.79,53.66,44.26,85.82,57.85c33.3,14.08,68.66,21.23,105.1,21.23c36.44,0,71.8-7.14,105.1-21.23
		c32.15-13.6,61.03-33.07,85.82-57.85c24.79-24.79,44.26-53.66,57.85-85.82c14.08-33.3,21.23-68.66,21.23-105.1
		c0-36.44-7.14-71.8-21.23-105.1c-13.6-32.15-33.07-61.03-57.85-85.82c-24.79-24.79-53.66-44.26-85.82-57.85
		C1071.8,737.14,1036.44,730,1000,730L1000,730z"/>
</g>
<g>
	<g>
		<g>
			<path class="st2" d="M1000,1134.5c-35.03,0-68.25-12.61-96.08-36.45c-23.79-20.39-42.21-48.29-52.75-79.6
				c46.73,14.13,96.72,21.28,148.83,21.28s102.1-7.15,148.83-21.28c-10.54,31.31-28.96,59.21-52.75,79.6
				C1068.25,1121.89,1035.03,1134.5,1000,1134.5z"/>
			<path class="st3" d="M1136.49,1029.77c-10.47,24.44-26.05,46.09-45.29,62.58c-26.45,22.67-57.99,34.65-91.2,34.65
				c-33.21,0-64.75-11.98-91.2-34.65c-19.24-16.49-34.82-38.14-45.29-62.58c43.22,11.6,89,17.46,136.49,17.46
				C1047.49,1047.23,1093.27,1041.37,1136.49,1029.77 M1160.05,1007c-47.99,16.13-102.4,25.23-160.05,25.23
				c-57.65,0-112.05-9.1-160.05-25.23c20.08,77.98,84.13,135,160.05,135C1075.92,1142,1139.97,1084.98,1160.05,1007L1160.05,1007z"
				/>
			<path class="st4" d="M1160.05,1007c-20.08,77.98-84.13,135-160.05,135c-75.92,0-139.97-57.02-160.05-135
				c47.99,16.13,102.4,25.23,160.05,25.23C1057.65,1032.23,1112.05,1023.13,1160.05,1007 M1188.6,976.3l-34.93,11.74
				c-47.09,15.83-100.23,24.19-153.67,24.19c-53.45,0-106.59-8.36-153.67-24.19L811.4,976.3l9.19,35.68
				c5.46,21.19,13.91,41.2,25.13,59.47c11.12,18.11,24.68,34.08,40.31,47.47c15.93,13.65,33.61,24.28,52.56,31.6
				c19.71,7.61,40.37,11.47,61.42,11.47c21.05,0,41.71-3.86,61.42-11.47c18.94-7.32,36.63-17.95,52.56-31.6
				c15.63-13.4,29.2-29.37,40.31-47.47c11.22-18.27,19.67-38.28,25.13-59.47L1188.6,976.3L1188.6,976.3z"/>
		</g>
	</g>
	<circle class="st5" cx="1052.87" cy="1074.5" r="7.5"/>
	<circle class="st5" cx="951.39" cy="1074.5" r="7.5"/>
</g>
</svg>
